<svg xmlns="http://www.w3.org/2000/svg" width="24" height="24" fill="none" viewBox="0 0 24 24" id="left-arrow">
  <g fill="#000" fill-rule="evenodd" clip-rule="evenodd">
    <path d="m7.70711 5.29289c.39052.39053.39052 1.02369 0 1.41422l-5.2929 5.29289 5.2929 5.2929c.39052.3905.39052 1.0237 0 1.4142-.39053.3905-1.02369.3905-1.41422 0l-5.999997-6c-.3905241-.3905-.3905241-1.0237 0-1.4142l5.999997-6.00001c.39053-.39052 1.02369-.39052 1.41422 0z"></path>
    <path d="m0 12c0-.5523.447715-1 1-1h22c.5523 0 1 .4477 1 1s-.4477 1-1 1h-22c-.552285 0-1-.4477-1-1z"></path>
  </g>
</svg>
