<svg xmlns="http://www.w3.org/2000/svg" xml:space="preserve" style="enable-background:new 0 0 24 24" viewBox="0 0 24 24" id="best-choice">
  <g id="Layer_2">
    <g>
      <path d="M18.81738,7.58301c-0.17871-0.17871-0.27734-0.4248-0.27734-0.69336V6.45996c0-1.6543-1.3457-3-3-3h-0.42969
			c-0.26465,0-0.5166-0.10156-0.69336-0.27734l-0.31348-0.31445c-1.18164-1.16309-3.02734-1.16406-4.21094,0.00488L9.58301,3.18262
			C9.40625,3.3584,9.1543,3.45996,8.88965,3.45996H8.45996c-1.6543,0-3,1.3457-3,3v0.42969
			c0,0.26855-0.09863,0.51465-0.27734,0.69336L4.87305,7.89258C4.30469,8.46094,3.99219,9.21387,3.99512,10.0127
			c0.00195,0.79395,0.31543,1.54004,0.87793,2.09473l0.30273,0.30176c0.0127,0.01855,0.02539,0.03613,0.03906,0.05273
			c0.02148,0.03711,0.04492,0.07227,0.07031,0.10547c0.11621,0.15137,0.1748,0.33398,0.1748,0.54297v0.43945
			c0,1.49152,1.10498,2.72119,2.54004,2.94391V21c0,0.32129,0.1543,0.62305,0.41504,0.81152
			c0.26172,0.1875,0.59668,0.23926,0.90137,0.13672L12,21.05371l2.68359,0.89453C14.78711,21.9834,14.89355,22,15,22
			c0.20703,0,0.41211-0.06445,0.58496-0.18848C15.8457,21.62305,16,21.32129,16,21v-4.50629
			c1.43506-0.22272,2.54004-1.45239,2.54004-2.94391v-0.43945c0-0.20898,0.05859-0.3916,0.1748-0.54297
			c0.02539-0.0332,0.04883-0.06836,0.07031-0.10547c0.01367-0.0166,0.02637-0.03418,0.03906-0.05176l0.30078-0.30078
			c0.56543-0.55957,0.87793-1.30371,0.87988-2.09668c0.00293-0.79883-0.30957-1.55176-0.87793-2.12012L18.81738,7.58301z
			 M14,19.6123l-1.68359-0.56055C12.21387,19.01758,12.10645,19,12,19s-0.21387,0.01758-0.31641,0.05176L10,19.6123v-2.38574
			c0.11719,0.1123,0.2334,0.19727,0.35059,0.2793c0.125,0.08209,0.25452,0.15381,0.38751,0.21533
			c0.05878,0.02722,0.12036,0.04486,0.18042,0.06812c0.07532,0.02905,0.14941,0.06244,0.22632,0.08521
			c0.11322,0.03357,0.22882,0.05566,0.3446,0.0755c0.02527,0.00433,0.04993,0.0127,0.07538,0.01636
			c0.13434,0.01941,0.2699,0.02808,0.40564,0.02911c0.00726,0.00006,0.01447,0.00159,0.02173,0.00159
			c0.00012,0,0.00031-0.00006,0.00043-0.00006c0.58081,0.00018,1.16473-0.16772,1.68024-0.50775
			c0.09863-0.06934,0.21094-0.15039,0.32715-0.2627V19.6123z M17.7168,10.68848c-0.00098,0.00195-0.00293,0.00293-0.00391,0.00488
			l-0.30273,0.30273c-0.05176,0.05078-0.12891,0.12598-0.20312,0.2334c-0.04688,0.05762-0.08984,0.12012-0.12988,0.18848
			c-0.35156,0.48828-0.53711,1.07129-0.53711,1.69238v0.43945c0,0.53711-0.45801,0.99023-1,0.99023h-0.42969
			c-0.04883,0-0.12793,0-0.22754,0.01465c-0.09381,0.00647-0.18506,0.02911-0.27759,0.04449
			c-0.07227,0.01202-0.1452,0.0174-0.21625,0.03467c-0.11145,0.0271-0.21765,0.06854-0.32501,0.10803
			c-0.06049,0.02228-0.12323,0.03741-0.18201,0.06348c-0.12183,0.05389-0.23547,0.12219-0.34851,0.19165
			c-0.03876,0.0238-0.08124,0.04132-0.11884,0.06683c-0.14764,0.10046-0.28613,0.21344-0.41168,0.33948l-0.26172,0.26172
			c-0.0459,0.03613-0.08789,0.07617-0.12695,0.12012c-0.01074,0.01172-0.06445,0.04883-0.06445,0.04883
			c-0.33203,0.21973-0.76562,0.21973-1.07617,0.0166c-0.02148-0.01465-0.07715-0.05371-0.08789-0.06543
			c-0.03906-0.04395-0.08105-0.08398-0.12695-0.12012l-0.26074-0.26074c-0.12579-0.12628-0.26447-0.23944-0.41223-0.34009
			c-0.03741-0.02545-0.07983-0.04285-0.11847-0.06659c-0.11328-0.06964-0.22723-0.13812-0.34924-0.19214
			c-0.05865-0.026-0.12128-0.04114-0.18158-0.06342c-0.10754-0.03955-0.21399-0.08105-0.32556-0.10822
			c-0.07104-0.01733-0.14398-0.02264-0.21619-0.03467C9.30225,14.5838,9.211,14.56116,9.11719,14.55469
			c-0.09961-0.01465-0.17871-0.01465-0.22754-0.01465H8.45996c-0.54199,0-1-0.45312-1-0.99023v-0.43945
			c0-0.62109-0.18555-1.2041-0.53711-1.69238c-0.04004-0.06836-0.08203-0.12988-0.12891-0.1875
			c-0.07422-0.10742-0.15039-0.18164-0.19727-0.22754L6.2832,10.68848c-0.18555-0.18164-0.28711-0.4248-0.28809-0.68164
			c-0.00098-0.26172,0.10254-0.51074,0.29199-0.7002l0.30957-0.30957c0.55664-0.55664,0.86328-1.30469,0.86328-2.10742V6.45996
			c0-0.55176,0.44824-1,1-1h0.42969c0.79102,0,1.55859-0.31445,2.10742-0.86328l0.30566-0.30469
			c0.38867-0.38672,1.00195-0.3877,1.39062-0.00488l0.30957,0.30957c0.54883,0.54883,1.31641,0.86328,2.10742,0.86328h0.42969
			c0.55176,0,1,0.44824,1,1v0.42969c0,0.80273,0.30664,1.55078,0.86328,2.10742l0.30957,0.30957
			c0.18945,0.18945,0.29297,0.43848,0.29199,0.7002C18.00391,10.26367,17.90234,10.50684,17.7168,10.68848z"></path>
    </g>
  </g>
</svg>
