<svg xmlns="http://www.w3.org/2000/svg" xml:space="preserve" id="camera" x="0" y="0" version="1.1" viewBox="0 0 101 101">
  <path d="M84.6 50.5c0-13.8-8.2-25.6-20-31-.1-.1-.2-.1-.3-.2-4.2-1.9-8.9-2.9-13.8-2.9-13.8 0-25.7 8.3-31 20.1 0 .1-.1.2-.1.3-1.9 4.2-2.9 8.8-2.9 13.7 0 13.8 8.2 25.6 20 31 .1.1.2.1.3.1 4.2 1.9 8.9 2.9 13.8 2.9 13.7 0 25.6-8.2 31-19.9.1-.1.1-.2.1-.3 1.8-4.2 2.9-8.9 2.9-13.8zm-4.8 0c0 3-.5 6-1.3 8.8L53.7 34.8 64 24.6c9.3 4.8 15.8 14.6 15.8 25.9zM50.5 63.1L37.9 50.5l12.4-12.4 12.6 12.5-12.4 12.5zm0-41.9c3 0 5.9.5 8.6 1.3L34.5 47.1l-10-10c4.9-9.4 14.7-15.9 26-15.9zM21.2 50.5c0-3 .5-5.9 1.3-8.6l10.3 10.3 14.3 14.3-10 10c-9.4-4.9-15.9-14.7-15.9-26zm29.3 29.3c-3 0-5.9-.5-8.7-1.3L66.3 54l10.1 10c-4.9 9.4-14.6 15.8-25.9 15.8z"></path>
</svg>
